<?xml version="1.0" standalone="no"?>
<!DOCTYPE svg PUBLIC "-//W3C//DTD SVG 20010904//EN"
 "http://www.w3.org/TR/2001/REC-SVG-20010904/DTD/svg10.dtd">
<svg version="1.0" xmlns="http://www.w3.org/2000/svg"
 width="1024.000000pt" height="1024.000000pt" viewBox="0 0 1024.000000 1024.000000"
 preserveAspectRatio="xMidYMid meet">
<metadata>
Created by potrace 1.11, written by Peter Selinger 2001-2013
</metadata>
<g transform="translate(0.000000,1024.000000) scale(0.100000,-0.100000)"
fill="#000000" stroke="none">
<path d="M4939 10236 c-2 -2 -35 -6 -74 -10 -237 -22 -432 -69 -675 -161 -69
-26 -128 -52 -131 -57 -3 -5 -10 -9 -15 -9 -14 0 -132 -59 -202 -101 -34 -21
-67 -38 -72 -38 -6 0 -10 -4 -10 -10 0 -5 -5 -10 -11 -10 -6 0 -21 -8 -34 -17
-12 -10 -33 -25 -45 -33 -13 -8 -45 -32 -71 -52 -27 -21 -53 -38 -59 -38 -5 0
-10 -4 -10 -8 0 -4 -21 -24 -47 -44 -115 -88 -313 -298 -421 -448 -34 -47 -66
-89 -70 -95 -47 -62 -232 -405 -232 -431 0 -5 -6 -21 -14 -35 -7 -15 -23 -58
-35 -95 -12 -38 -26 -76 -30 -84 -5 -9 -12 -31 -17 -50 -4 -19 -9 -38 -10 -42
-1 -5 -3 -10 -4 -13 -3 -7 -5 -14 -15 -60 -13 -56 -12 -54 -15 -60 -4 -7 -5
-15 -14 -68 -4 -27 -9 -59 -12 -70 -13 -69 -25 -176 -28 -268 -1 -41 -6 -80
-9 -86 -4 -7 -3 -14 3 -18 7 -4 7 -13 -1 -26 -7 -14 -7 -24 0 -32 6 -8 6 -18
1 -27 -5 -8 -6 -19 -2 -24 3 -6 7 -42 8 -81 2 -72 11 -173 18 -211 6 -29 17
-93 21 -126 2 -15 8 -44 14 -65 6 -21 12 -49 15 -63 3 -14 7 -34 10 -45 7 -32
68 -219 74 -230 4 -5 8 -17 9 -26 1 -8 9 -29 18 -45 8 -16 15 -33 15 -38 0
-13 140 -289 156 -307 8 -8 14 -20 14 -25 0 -5 14 -27 30 -48 17 -22 30 -43
30 -48 0 -4 7 -16 16 -25 8 -10 38 -49 67 -88 28 -38 53 -72 56 -75 3 -3 29
-32 56 -65 116 -138 386 -381 475 -427 14 -7 36 -23 49 -35 14 -12 28 -20 33
-17 4 3 8 1 8 -4 0 -15 216 -130 350 -188 47 -20 99 -42 115 -49 60 -26 269
-89 334 -100 19 -3 37 -8 41 -10 4 -3 22 -7 41 -9 19 -3 48 -8 64 -11 34 -7
66 -11 175 -22 145 -15 570 -6 600 12 3 2 31 6 61 9 67 7 78 9 203 41 107 27
188 51 221 65 39 16 90 35 100 36 6 1 28 10 50 20 22 10 42 18 45 19 17 5 151
72 183 92 20 13 37 20 37 16 0 -5 4 -3 8 3 4 6 31 24 60 39 28 15 52 30 52 34
0 3 13 12 28 18 27 12 45 25 102 71 15 12 32 22 38 22 6 0 12 3 14 8 2 4 25
25 53 47 102 83 249 224 325 314 25 29 50 58 56 65 39 42 181 245 206 296 7
14 16 27 19 30 7 5 123 230 124 240 1 3 10 26 22 51 44 97 120 330 138 422 3
15 8 39 11 55 4 15 8 34 9 42 1 8 5 31 9 50 18 102 29 204 30 297 1 35 4 63 8
63 4 0 3 11 -2 25 -6 15 -6 27 0 30 6 3 6 15 0 30 -6 17 -6 25 1 25 6 0 7 5 3
11 -4 6 -8 51 -9 99 -2 47 -6 104 -10 126 -3 21 -8 59 -10 84 -3 25 -6 54 -9
65 -2 11 -14 64 -25 119 -11 54 -31 130 -43 170 -12 39 -23 77 -24 84 -1 8 -6
21 -10 30 -4 9 -9 26 -11 37 -2 10 -9 23 -16 27 -6 4 -9 8 -5 8 13 0 -94 235
-172 378 -27 49 -130 203 -150 224 -11 12 -20 27 -20 34 0 7 -3 14 -8 16 -4 2
-36 38 -70 80 -91 113 -320 338 -343 338 -5 0 -9 4 -9 8 0 10 -139 113 -250
185 -126 82 -394 216 -416 208 -4 -2 -10 1 -13 6 -5 7 -109 48 -146 57 -5 2
-17 6 -25 9 -8 4 -24 8 -35 10 -11 2 -27 7 -35 10 -18 7 -171 44 -215 51 -16
3 -46 8 -65 11 -19 3 -51 8 -70 11 -19 4 -48 8 -65 10 -42 5 -462 13 -466 10z"/>
<path d="M3286 4483 c-2 -2 -46 -6 -98 -8 -141 -7 -300 -24 -308 -34 -3 -3
-16 -6 -30 -7 -32 -1 -74 -9 -130 -24 -25 -7 -54 -14 -65 -15 -11 -2 -36 -8
-55 -15 -19 -6 -45 -13 -57 -16 -12 -2 -35 -9 -50 -16 -16 -6 -30 -12 -33 -13
-31 -7 -88 -30 -99 -39 -8 -6 -16 -10 -17 -9 -13 8 -217 -86 -339 -156 -38
-22 -79 -45 -90 -50 -11 -5 -31 -20 -45 -33 -13 -12 -27 -22 -30 -21 -3 1 -14
-5 -25 -13 -11 -8 -49 -35 -85 -61 -36 -26 -70 -52 -76 -57 -6 -6 -33 -29 -60
-51 -62 -49 -278 -265 -324 -324 -19 -24 -40 -48 -45 -55 -31 -34 -125 -166
-125 -175 0 -6 -4 -11 -8 -11 -5 0 -14 -10 -20 -22 -6 -13 -23 -41 -37 -63
-14 -22 -28 -48 -31 -57 -4 -10 -9 -18 -13 -18 -4 0 -18 -25 -31 -55 -13 -30
-28 -55 -32 -55 -4 0 -7 -3 -6 -7 1 -5 -12 -37 -29 -73 -48 -103 -102 -238
-123 -310 -7 -25 -22 -72 -33 -105 -10 -33 -20 -71 -21 -85 -2 -14 -8 -45 -15
-70 -7 -25 -15 -61 -16 -80 -2 -19 -6 -46 -10 -60 -3 -14 -8 -43 -11 -65 -3
-22 -8 -56 -11 -75 -3 -19 -7 -303 -9 -630 -3 -566 -3 -599 16 -680 22 -93 27
-114 30 -117 2 -2 3 -6 4 -10 0 -5 14 -37 30 -73 32 -71 81 -151 136 -219 30
-39 52 -61 124 -126 36 -32 98 -75 146 -102 64 -35 213 -94 250 -98 14 -2 45
-8 70 -14 31 -7 1190 -10 3665 -10 3753 0 3625 -1 3785 35 34 7 148 53 186 75
17 9 42 23 55 31 85 47 223 179 291 278 47 68 108 188 108 213 0 7 3 17 8 21
4 4 8 12 8 17 1 5 2 10 4 12 3 4 9 32 25 120 14 75 16 167 12 670 -2 320 -6
591 -9 602 -4 12 -9 48 -13 80 -4 33 -9 69 -11 80 -3 11 -7 36 -10 55 -3 19
-8 44 -11 55 -3 11 -7 29 -9 40 -3 26 -43 174 -53 200 -5 11 -19 52 -31 90
-31 96 -103 264 -155 360 -24 44 -51 96 -62 115 -10 19 -24 39 -30 43 -7 4
-13 13 -13 20 0 7 -16 35 -36 62 -19 28 -43 62 -52 77 -9 16 -20 28 -24 28 -5
0 -8 6 -8 14 0 8 -4 16 -8 18 -4 2 -35 37 -67 78 -112 140 -296 316 -490 468
-42 33 -195 132 -204 132 -6 0 -11 3 -11 8 0 4 -10 12 -23 18 -12 7 -70 37
-129 67 -60 30 -108 52 -108 49 0 -4 -4 -2 -8 4 -11 17 -295 125 -298 113 0
-2 -7 1 -15 7 -11 9 -82 30 -129 39 -3 1 -14 4 -25 8 -11 3 -31 8 -45 11 -14
3 -36 8 -50 11 -14 3 -38 8 -55 10 -16 3 -41 7 -55 10 -14 3 -41 7 -60 9 -19
2 -57 7 -85 10 -76 9 -234 17 -295 15 -30 0 -61 -1 -67 0 -7 0 -38 1 -68 1
-30 0 -63 0 -72 0 -117 0 -127 -2 -241 -49 -138 -58 -323 -121 -442 -151 -47
-12 -92 -24 -100 -27 -8 -3 -26 -7 -40 -9 -33 -5 -65 -12 -65 -14 0 -1 -9 -3
-20 -4 -22 -3 -99 -16 -130 -22 -72 -15 -257 -34 -347 -37 -21 -1 -38 -6 -38
-12 0 -6 -3 -7 -8 0 -8 12 -112 14 -112 2 0 -4 -9 -3 -19 3 -13 7 -28 7 -45 0
-14 -5 -26 -6 -26 -2 0 4 -37 7 -83 8 -120 1 -303 18 -407 38 -14 2 -43 7 -65
10 -22 3 -83 15 -135 26 -52 12 -106 24 -119 26 -13 3 -32 9 -41 14 -9 5 -28
11 -41 14 -13 3 -34 7 -47 10 -25 6 -197 62 -227 75 -11 5 -51 21 -90 36 -38
15 -84 34 -100 42 -44 19 -72 24 -135 23 -71 -2 -64 -2 -142 1 -38 1 -70 0
-73 -3 -3 -3 -21 -2 -40 2 -19 4 -36 6 -39 3z"/>
</g>
</svg>
